<mxfile host="app.diagrams.net" modified="2023-07-21T14:13:33.675Z" agent="Mozilla/5.0 (Windows NT 10.0; Win64; x64; rv:109.0) Gecko/20100101 Firefox/115.0" etag="j269MQ4aJycwinfiJRNg" version="21.6.3" type="github">
  <diagram name="Page-1" id="WWMy127vaULX3qns3pla">
    <mxGraphModel dx="1147" dy="585" grid="1" gridSize="10" guides="1" tooltips="1" connect="1" arrows="1" fold="1" page="1" pageScale="1" pageWidth="1100" pageHeight="850" math="0" shadow="0">
      <root>
        <mxCell id="0" />
        <mxCell id="1" parent="0" />
        <mxCell id="KZKOQ-VaA-EB9zKIBUlQ-1" style="edgeStyle=orthogonalEdgeStyle;rounded=0;orthogonalLoop=1;jettySize=auto;html=1;exitX=1;exitY=0.5;exitDx=0;exitDy=0;entryX=0;entryY=0.5;entryDx=0;entryDy=0;" edge="1" parent="1" source="KZKOQ-VaA-EB9zKIBUlQ-3" target="KZKOQ-VaA-EB9zKIBUlQ-4">
          <mxGeometry relative="1" as="geometry" />
        </mxCell>
        <mxCell id="KZKOQ-VaA-EB9zKIBUlQ-2" value="data_supplier" style="edgeLabel;html=1;align=center;verticalAlign=middle;resizable=0;points=[];" vertex="1" connectable="0" parent="KZKOQ-VaA-EB9zKIBUlQ-1">
          <mxGeometry x="-0.2125" y="1" relative="1" as="geometry">
            <mxPoint as="offset" />
          </mxGeometry>
        </mxCell>
        <mxCell id="KZKOQ-VaA-EB9zKIBUlQ-3" value="3.1 Proses Input Data Supplier" style="ellipse;whiteSpace=wrap;html=1;aspect=fixed;" vertex="1" parent="1">
          <mxGeometry x="450" y="275" width="150" height="150" as="geometry" />
        </mxCell>
        <mxCell id="KZKOQ-VaA-EB9zKIBUlQ-4" value="Data Supplier" style="shape=partialRectangle;whiteSpace=wrap;html=1;left=0;right=0;fillColor=none;" vertex="1" parent="1">
          <mxGeometry x="760" y="320" width="120" height="60" as="geometry" />
        </mxCell>
        <mxCell id="KZKOQ-VaA-EB9zKIBUlQ-5" style="edgeStyle=orthogonalEdgeStyle;rounded=0;orthogonalLoop=1;jettySize=auto;html=1;exitX=1;exitY=0.5;exitDx=0;exitDy=0;entryX=0;entryY=0.5;entryDx=0;entryDy=0;" edge="1" parent="1" source="KZKOQ-VaA-EB9zKIBUlQ-7" target="KZKOQ-VaA-EB9zKIBUlQ-3">
          <mxGeometry relative="1" as="geometry" />
        </mxCell>
        <mxCell id="KZKOQ-VaA-EB9zKIBUlQ-6" value="data_supplier" style="edgeLabel;html=1;align=center;verticalAlign=middle;resizable=0;points=[];" vertex="1" connectable="0" parent="KZKOQ-VaA-EB9zKIBUlQ-5">
          <mxGeometry x="-0.0667" relative="1" as="geometry">
            <mxPoint as="offset" />
          </mxGeometry>
        </mxCell>
        <mxCell id="KZKOQ-VaA-EB9zKIBUlQ-7" value="Staff Gudang" style="rounded=0;whiteSpace=wrap;html=1;" vertex="1" parent="1">
          <mxGeometry x="180" y="320" width="120" height="60" as="geometry" />
        </mxCell>
      </root>
    </mxGraphModel>
  </diagram>
</mxfile>
